<mxfile host="app.diagrams.net" modified="2023-10-25T05:52:17.402Z" agent="Mozilla/5.0 (Windows NT 10.0; Win64; x64) AppleWebKit/537.36 (KHTML, like Gecko) Chrome/118.0.0.0 Safari/537.36" version="22.0.7" etag="unG8n8x2K0KfqFvthwYR" type="github">
  <diagram name="페이지-1" id="cNO8qBVSl8WUIdjc5TIf">
    <mxGraphModel>
      <root>
        <mxCell id="0" />
        <mxCell id="1" parent="0" />
      </root>
    </mxGraphModel>
  </diagram>
</mxfile>
